<?xml version="1.0" encoding="UTF-8"?>
<svg xmlns="http://www.w3.org/2000/svg" id="Layer_1" data-name="Layer 1" viewBox="0 0 24 24">
  <path d="M9.445,13.661c-5.328,.033-8.195,2.91-8.292,8.321-.005,.269,.099,.527,.287,.719,.188,.191,.444,.299,.713,.299h14.595c.269,0,.525-.107,.713-.299,.188-.191,.292-.45,.287-.719-.092-5.332-3.036-8.287-8.303-8.321Z"/>
  <path d="M21.515,12l.892-.893c.586-.586,.586-1.535,0-2.121s-1.535-.586-2.121,0l-.892,.892-.892-.892c-.586-.586-1.535-.586-2.121,0s-.586,1.535,0,2.121l.892,.893-.892,.893c-.586,.586-.586,1.535,0,2.121,.293,.293,.677,.439,1.061,.439s.768-.146,1.061-.439l.892-.892,.892,.892c.293,.293,.677,.439,1.061,.439s.768-.146,1.061-.439c.586-.586,.586-1.535,0-2.121l-.892-.893Z"/>
  <path d="M9.457,12.309c3.611-.021,5.555-1.971,5.622-5.671-.062-3.56-2.111-5.614-5.634-5.637-3.561,.022-5.622,2.122-5.622,5.672s2.062,5.615,5.634,5.636Z"/>
</svg>
